<?xml version="1.0" encoding="UTF-8"?>
<svg id="squares-base_Image" data-name="squares-base Image" xmlns="http://www.w3.org/2000/svg" viewBox="0 0 1080 580">
  <defs>
    <style>
      .cls-1 {
        fill: #89b4fa;
      }
    </style>
  </defs>
  <path class="cls-1" d="M477.07,513.99l-17.9.03H123.56s-15.25.02-15.25.02c-20.37,0-40.31-19.71-40.31-40.28v-16.88s0-333.7,0-333.7v-16.89c-.01-20.13,19.9-40.35,41.9-40.3l15.3.04,333.96.02h16.95c18.46.02,39.94,19.49,39.93,40.35v15.14s0,336.98,0,336.98v15.23c.02,20.5-20.72,40.22-38.96,40.24Z"/>
  <path class="cls-1" d="M819.83,495.65c-.11,10.17-8.85,18.23-18.22,18.28l-16.36.09h-166.93s-16.6.01-16.6.01c-2.28,0-5.75-4.15-5.72-6.29l.17-15.11V89.03s-.12-16.55-.12-16.55c-.02-2.29,3.46-6.49,5.79-6.49h16.46s166.93,0,166.93,0l16.45.19c9.34.11,17.84,8.22,18.02,17.57l.31,16.68v377.5s-.2,17.71-.2,17.71Z"/>
  <path class="cls-1" d="M1012,473.7c0,19.84-18.85,40.25-42.01,40.27l-50.6.05h-13.36c-2.24.01-6.07-3.8-6.05-6.16l.15-16.99V89.12s-.05-16.73-.05-16.73c0-2.43,3.74-6.41,6.12-6.4l13.15.02h49.03c16.01-.01,30.44,8.31,38.15,22.11,2.92,5.23,5.44,12.42,5.44,18.2v16.89s0,333.6,0,333.6v16.9Z"/>
</svg>