<?xml version="1.0" encoding="UTF-8"?>
<svg id="squares-base_Image" data-name="squares-base Image" xmlns="http://www.w3.org/2000/svg" viewBox="0 0 1080 1080">
  <defs>
    <style>
      .cls-1 {
        fill: #b3bdfd;
      }

      .cls-2 {
        fill: #181825;
      }
    </style>
  </defs>
  <rect class="cls-2" width="1080" height="1080"/>
  <path class="cls-1" d="M501.38,677.47l-10.99.02h-205.99s-9.36.01-9.36.01c-12.51,0-24.74-12.1-24.74-24.72v-10.36s0-204.82,0-204.82v-10.37c0-12.35,12.22-24.77,25.72-24.73l9.39.02h204.98s10.4.01,10.4.01c11.33,0,24.51,11.96,24.51,24.76v9.29s0,206.83,0,206.83v9.35c.01,12.58-12.72,24.68-23.91,24.7Z"/>
  <path class="cls-1" d="M711.75,666.22c-.07,6.24-5.43,11.19-11.18,11.22l-10.04.06h-102.46s-10.19,0-10.19,0c-1.4,0-3.53-2.54-3.51-3.86l.11-9.28v-247.72s-.07-10.16-.07-10.16c-.01-1.4,2.12-3.98,3.56-3.98h10.1s102.46,0,102.46,0l10.1.12c5.73.07,10.95,5.05,11.06,10.79l.19,10.24v231.7s-.12,10.87-.12,10.87Z"/>
  <path class="cls-1" d="M829.7,652.75c0,12.18-11.57,24.71-25.78,24.72l-31.05.03h-8.2c-1.38,0-3.73-2.33-3.71-3.78l.09-10.43v-246.59s-.03-10.27-.03-10.27c0-1.49,2.29-3.93,3.76-3.93h8.07s30.1,0,30.1,0c9.83,0,18.69,5.11,23.42,13.57,1.79,3.21,3.34,7.62,3.34,11.17v10.37s0,204.75,0,204.75v10.37Z"/>
</svg>